# xmcd
#
# Track frame offsets:
#	150
#	14800
#	28068
#	39001
#	51226
#	62848
#	74846
#	88852
#	102785
#	119614
#	132003
#	143386
#	154926
#	168160
#	182797
#	196204
#	211163
#
# Disc length: 2997 seconds
#
# Revision: 0
# Processed by: cddbd v1.5.2PL0 Copyright (c) Steve Scherf et al.
# Submitted via: dBpowerAMP V4.0
#
DISCID=f00bb311
DTITLE=Glen Campbell - Rhinestone Cowboy (Best Of 1967-1990)
DYEAR=2002
DGENRE=
TTITLE0=Rhinestone Cowboy
TTITLE1=Gentle On My Mind
TTITLE2=Try A Little Kindness
TTITLE3=By The Time I Get To Phoenix
TTITLE4=All I Have To Do Is Dream
TTITLE5=Galveston
TTITLE6=Country Boy (You've Got Your Feet In LA)
TTITLE7=Wichita Lineman
TTITLE8=Both Sides Now
TTITLE9=I Wanna Live
TTITLE10=True Grit
TTITLE11=Dreams Of The Everyday Housewife
TTITLE12=Where's The Playground Susie
TTITLE13=I Say A Little Prayer/By The Time I Get To Phoenix
TTITLE14=Southern Nights
TTITLE15=Unconditional Love
TTITLE16=Annie's Song (Live)
EXTD=
EXTT0=
EXTT1=
EXTT2=
EXTT3=
EXTT4=
EXTT5=
EXTT6=
EXTT7=
EXTT8=
EXTT9=
EXTT10=
EXTT11=
EXTT12=
EXTT13=
EXTT14=
EXTT15=
EXTT16=
PLAYORDER=
